<svg xmlns="http://www.w3.org/2000/svg" width="2316.354" height="1940.294" viewBox="0 0 2316.354 1940.294">
  <path id="Subtraction_4" data-name="Subtraction 4" d="M2246.279,1938.142H793.9c-42.44-60.152-85.095-122.054-130.4-189.243-40.368-59.865-81.927-122.576-127.05-191.719C452.642,1428.758,369,1297.161,288.116,1169.9l-.037-.058-.452-.712-.02-.031c-38.232-60.174-77.765-122.395-115-184.43-20.05-33.4-37.834-64.056-54.371-93.714-18.567-33.3-35.09-64.491-50.512-95.351-9.99-20.025-18.37-37.8-25.618-54.335-8.675-19.795-15.751-37.829-21.632-55.134-3.193-9.394-6.044-18.643-8.475-27.489-2.559-9.312-4.733-18.476-6.463-27.236-1.811-9.172-3.195-18.2-4.111-26.832A246.668,246.668,0,0,1,0,578.3,171.971,171.971,0,0,1,9.477,520.7a144.294,144.294,0,0,1,11.245-24.37,130.672,130.672,0,0,1,15.047-20.866,121.313,121.313,0,0,1,18.449-16.95A116.856,116.856,0,0,1,75.666,445.9a118.131,118.131,0,0,1,24.047-7.875,126.314,126.314,0,0,1,26.244-2.717c3.682,0,7.441.155,11.174.462a180.669,180.669,0,0,1,23.24,3.52,233.344,233.344,0,0,1,23.526,6.464,358.434,358.434,0,0,1,47.717,20.062c14.372,7.166,30.166,15.912,48.282,26.737,16.143,9.645,32.569,19.995,48.454,30l.007,0c16.629,10.478,33.825,21.314,50.614,31.284,18.813,11.172,35.149,20.073,49.939,27.21,17.739,8.56,33.709,14.843,48.82,19.208a196.649,196.649,0,0,0,23.85,5.375,151.245,151.245,0,0,0,23.4,1.9,128.847,128.847,0,0,0,14.3-.787,110.589,110.589,0,0,0,45.672-15.6,126.582,126.582,0,0,0,19.023-14.282,155.622,155.622,0,0,0,16.683-17.79,199.148,199.148,0,0,0,14.494-20.688,257.007,257.007,0,0,0,12.456-22.975,364.717,364.717,0,0,0,19.4-50.376c6.207-20.161,12.079-43.085,17.953-70.083,5.235-24.062,9.983-49.048,14.575-73.211l0-.012c5.31-27.94,10.8-56.831,17.059-84.365,3.367-14.814,6.684-28.074,10.14-40.537,3.878-13.982,7.829-26.607,12.08-38.6,4.564-12.873,9.5-24.992,14.669-36.021a291.937,291.937,0,0,1,17.907-32.815A225.643,225.643,0,0,1,793.2,60.42a191.158,191.158,0,0,1,26.331-24.5,168.75,168.75,0,0,1,52.941-27A209.42,209.42,0,0,1,934.289,0a262.346,262.346,0,0,1,46.5,4.294,309.866,309.866,0,0,1,47.881,12.8,355.414,355.414,0,0,1,48.053,21.183,395.189,395.189,0,0,1,47.017,29.445,460.624,460.624,0,0,1,40.514,33.291,522.6,522.6,0,0,1,37.921,38.754,544.948,544.948,0,0,1,34.274,43.046,522.994,522.994,0,0,1,29.576,46.168,464.334,464.334,0,0,1,23.826,48.119A385.3,385.3,0,0,1,1306.88,326c9.186,33.842,12.362,65.959,9.438,95.459a321.117,321.117,0,0,0-.989,48.566,419.637,419.637,0,0,0,5.949,50.884c5.894,33.314,15.841,68.731,29.566,105.266a838.389,838.389,0,0,0,47.882,104.175,943.2,943.2,0,0,0,59.909,96.176c44.222,62.206,97.208,122.666,161.985,184.837,27.328,26.228,56.765,52.8,89.994,81.245,27.016,23.124,56.389,47.365,92.441,76.29,18.649,14.963,37.59,30,55.907,44.548,51.984,41.28,105.736,83.965,157.269,128.344,27.748,23.9,52.633,46.342,76.078,68.622,12.7,12.07,25.121,24.24,36.913,36.171,12.374,12.52,24.478,25.2,35.976,37.7,40.524,44.021,73.485,87.4,97.968,128.922,6.927,11.749,13.257,23.5,18.815,34.942,5.816,11.97,10.94,23.909,15.23,35.486a319.081,319.081,0,0,1,10.99,35.762,258,258,0,0,1,6.094,35.768,223.968,223.968,0,0,1,.949,28.443,208.4,208.4,0,0,1-2.553,26.635,205.929,205.929,0,0,1-5.654,24.935,215.243,215.243,0,0,1-8.354,23.344,236.363,236.363,0,0,1-10.654,21.861c-3.753,6.8-7.976,13.7-12.552,20.486a353.125,353.125,0,0,1-29.2,37.28Z" transform="translate(2315.854 1939.794) rotate(180)" fill="#1f1646" stroke="rgba(0,0,0,0)" stroke-miterlimit="10" stroke-width="1"/>
</svg>
