<?xml version="1.0" encoding="UTF-8"?><svg id="Layer_2" xmlns="http://www.w3.org/2000/svg" viewBox="0 0 517.32 177.92"><defs><style>.cls-1{fill:#242a3e;}.cls-2{fill:#fff;fill-rule:evenodd;}</style></defs><g id="Layer_1-2"><g><g><path class="cls-1" d="M147.2,149.3c0,.46-.06,.96-.17,1.48s-.32,1-.62,1.45-.72,.81-1.26,1.1c-.53,.29-1.22,.43-2.05,.43s-1.53-.15-2.05-.43c-.53-.29-.94-.66-1.25-1.1s-.51-.93-.62-1.45-.17-1.01-.17-1.48v-7.02h1.14v6.89c0,.54,.05,1,.16,1.38s.25,.71,.42,.97c.17,.26,.37,.47,.58,.62s.43,.27,.65,.36c.22,.08,.42,.14,.62,.17s.37,.04,.52,.04c.14,0,.31-.01,.51-.04,.21-.03,.42-.08,.63-.17,.22-.08,.43-.2,.65-.36,.22-.15,.41-.36,.58-.62,.17-.26,.31-.59,.42-.97,.1-.39,.16-.85,.16-1.38v-6.89h1.14v7.02Z"/><path class="cls-1" d="M161.3,151.76h.03v-9.49h1.14v11.19h-1.42l-6.67-9.58h-.03v9.58h-1.14v-11.19h1.42l6.67,9.49Z"/><path class="cls-1" d="M169.81,152.43h5.99v1.04h-7.13v-11.19h6.94v1.04h-5.8v3.81h5.42v1.04h-5.42v4.25Z"/><path class="cls-1" d="M192.02,151.76h.03l3.67-9.49h1.23l-4.36,11.19h-1.14l-4.25-11.19h1.26l3.56,9.49Z"/><path class="cls-1" d="M202.73,153.47h-1.14v-11.19h1.14v11.19Z"/><path class="cls-1" d="M210.06,152.43h5.99v1.04h-7.13v-11.19h6.94v1.04h-5.8v3.81h5.42v1.04h-5.42v4.25Z"/><path class="cls-1" d="M234.31,144.13c-.5-.73-1.22-1.09-2.17-1.09-.3,0-.58,.04-.87,.12s-.54,.2-.77,.36-.41,.37-.55,.63-.21,.56-.21,.91c0,.51,.14,.9,.43,1.18,.28,.28,.64,.51,1.06,.69s.88,.34,1.38,.48c.5,.14,.96,.33,1.38,.57,.42,.24,.78,.55,1.06,.94,.28,.39,.43,.92,.43,1.6,0,.51-.11,.96-.32,1.37s-.5,.75-.85,1.02c-.35,.27-.75,.49-1.19,.63s-.88,.22-1.32,.22c-.69,0-1.34-.13-1.95-.39-.62-.26-1.14-.68-1.57-1.27l1.04-.74c.24,.41,.58,.74,1.01,.99,.43,.25,.94,.37,1.53,.37,.28,0,.57-.04,.85-.13s.54-.22,.76-.4c.23-.17,.41-.39,.56-.64,.15-.25,.22-.54,.22-.87,0-.39-.08-.71-.24-.97-.16-.26-.38-.47-.65-.65-.27-.17-.57-.32-.92-.43-.34-.12-.7-.23-1.06-.35-.36-.12-.72-.25-1.06-.39s-.65-.33-.92-.56c-.27-.23-.48-.51-.65-.85-.16-.34-.25-.77-.25-1.29s.1-1.01,.31-1.41c.21-.4,.48-.73,.82-1,.34-.26,.73-.46,1.16-.59,.43-.13,.87-.19,1.33-.19,.63,0,1.21,.1,1.72,.3,.52,.2,1,.55,1.44,1.06l-1,.77Z"/><path class="cls-1" d="M240.78,153.47h-1.33l4.87-11.19h1.11l4.87,11.19h-1.33l-1.23-2.94h-5.72l-1.23,2.94Zm1.66-3.98h4.85l-2.42-5.88-2.43,5.88Z"/><path class="cls-1" d="M263.07,151.76h.03v-9.49h1.14v11.19h-1.42l-6.67-9.58h-.03v9.58h-1.14v-11.19h1.42l6.67,9.49Z"/><path class="cls-1" d="M275.74,144.13c-.5-.73-1.22-1.09-2.17-1.09-.3,0-.58,.04-.87,.12s-.54,.2-.77,.36-.41,.37-.55,.63-.21,.56-.21,.91c0,.51,.14,.9,.43,1.18,.28,.28,.64,.51,1.06,.69s.88,.34,1.38,.48c.5,.14,.96,.33,1.38,.57,.42,.24,.78,.55,1.06,.94,.28,.39,.43,.92,.43,1.6,0,.51-.11,.96-.32,1.37s-.5,.75-.85,1.02c-.35,.27-.75,.49-1.19,.63s-.88,.22-1.32,.22c-.69,0-1.34-.13-1.95-.39-.62-.26-1.14-.68-1.57-1.27l1.04-.74c.24,.41,.58,.74,1.01,.99,.43,.25,.94,.37,1.53,.37,.28,0,.57-.04,.85-.13s.54-.22,.76-.4c.23-.17,.41-.39,.56-.64,.15-.25,.22-.54,.22-.87,0-.39-.08-.71-.24-.97-.16-.26-.38-.47-.65-.65-.27-.17-.57-.32-.92-.43-.34-.12-.7-.23-1.06-.35-.36-.12-.72-.25-1.06-.39s-.65-.33-.92-.56c-.27-.23-.48-.51-.65-.85-.16-.34-.25-.77-.25-1.29s.1-1.01,.31-1.41c.21-.4,.48-.73,.82-1,.34-.26,.73-.46,1.16-.59,.43-.13,.87-.19,1.33-.19,.63,0,1.21,.1,1.72,.3,.52,.2,1,.55,1.44,1.06l-1,.77Z"/><path class="cls-1" d="M289.76,153.47h-1.33l4.87-11.19h1.11l4.87,11.19h-1.33l-1.23-2.94h-5.72l-1.23,2.94Zm1.66-3.98h4.85l-2.42-5.88-2.43,5.88Z"/><path class="cls-1" d="M305.09,152.43h5.22v1.04h-6.36v-11.19h1.14v10.15Z"/><path class="cls-1" d="M316.16,152.43h5.22v1.04h-6.36v-11.19h1.14v10.15Z"/><path class="cls-1" d="M327.23,152.43h5.99v1.04h-7.13v-11.19h6.94v1.04h-5.8v3.81h5.42v1.04h-5.42v4.25Z"/><path class="cls-1" d="M339.76,153.47h-1.14v-11.19h3.45c1.14,0,2.04,.25,2.7,.74,.66,.5,.99,1.24,.99,2.25,0,.78-.24,1.44-.74,1.97-.49,.53-1.2,.84-2.13,.93l3.23,5.31h-1.39l-3.07-5.2h-1.9v5.2Zm0-6.24h2.02c.51,0,.94-.05,1.29-.16,.35-.11,.64-.25,.85-.42,.21-.17,.36-.38,.46-.62,.1-.24,.14-.49,.14-.77s-.05-.51-.14-.75c-.09-.24-.25-.45-.46-.62-.21-.18-.49-.32-.85-.42-.35-.1-.78-.15-1.29-.15h-2.02v3.91Z"/><path class="cls-1" d="M359.43,144.33c-.38-.4-.83-.72-1.36-.95s-1.14-.35-1.83-.35-1.36,.13-1.93,.4c-.57,.26-1.05,.62-1.45,1.06s-.7,.96-.91,1.54c-.21,.58-.32,1.2-.32,1.84s.11,1.26,.32,1.84c.21,.58,.51,1.1,.91,1.54,.4,.44,.88,.8,1.45,1.06,.57,.26,1.21,.4,1.93,.4,.58,0,1.14-.07,1.67-.21,.53-.14,1.01-.34,1.43-.58v-3.75h-2.67v-1.04h3.81v5.49c-.63,.37-1.33,.65-2.08,.85s-1.47,.29-2.16,.29c-.83,0-1.61-.15-2.32-.44-.71-.3-1.33-.7-1.85-1.23-.52-.52-.93-1.14-1.23-1.86-.3-.72-.44-1.5-.44-2.36s.15-1.64,.44-2.36c.29-.72,.7-1.34,1.23-1.86,.52-.52,1.14-.93,1.85-1.23,.71-.3,1.48-.44,2.32-.44,.9,0,1.67,.12,2.32,.37,.65,.25,1.23,.62,1.73,1.13l-.85,.84Z"/><path class="cls-1" d="M367.76,153.47h-1.14v-11.19h1.14v11.19Z"/><path class="cls-1" d="M375.1,152.43h5.99v1.04h-7.13v-11.19h6.94v1.04h-5.8v3.81h5.42v1.04h-5.42v4.25Z"/></g><g><path class="cls-2" d="M20.1,126.86c4.03,.24,7.45-2.79,7.68-6.75,.24-3.96-2.79-7.38-6.82-7.62-3.96-.24-7.37,2.8-7.61,6.75-.24,3.95,2.8,7.37,6.75,7.61h0Z"/><path class="cls-2" d="M24.88,101.08c2.93,.18,5.42-2.02,5.59-4.96,.17-2.86-2.03-5.41-4.96-5.59-2.93-.18-5.42,2.1-5.59,4.96-.18,2.93,2.03,5.41,4.96,5.59h0Z"/><path class="cls-2" d="M43.46,117.5c2.42,.14,4.51-1.72,4.66-4.2,.14-2.42-1.72-4.52-4.13-4.66-2.49-.15-4.59,1.71-4.74,4.13s1.71,4.59,4.2,4.74h0Z"/><path class="cls-2" d="M2.53,103.38c1.45,.09,2.71-1.03,2.8-2.53,.09-1.45-1.03-2.71-2.48-2.8-1.5-.09-2.75,1.03-2.84,2.48-.09,1.5,1.03,2.75,2.52,2.84h0Z"/><path class="cls-2" d="M37.25,146.36c3.44,.21,6.32-2.42,6.53-5.79,.21-3.44-2.34-6.32-5.79-6.52-3.37-.2-6.32,2.34-6.52,5.79-.2,3.37,2.41,6.32,5.79,6.52h0Z"/><g><path class="cls-2" d="M143.95,0s15.97,150.55-107.21,177.92c88.83-91.66-8.93-76.37-5.32-135.34,0,0,82.12,64.63,112.53-42.58"/><path class="cls-2" d="M87.47,6.67c-9.38,0-16.98,7.6-16.98,16.98s7.6,16.98,16.98,16.98,16.98-7.6,16.98-16.98-7.6-16.98-16.98-16.98"/></g></g><g><path class="cls-1" d="M196.12,47.58c7.14,0,12.68,1,16.59,3.01,3.92,2.01,6.78,4.62,8.59,7.85,1.81,3.23,2.86,6.95,3.16,11.15,.29,4.21,.44,8.51,.44,12.91v40.06h-11.89v-7.19c-2.84,2.74-6.46,4.92-10.86,6.53-4.4,1.61-8.8,2.42-13.2,2.42s-7.92-.73-11.15-2.2c-3.23-1.47-5.92-3.37-8.07-5.72-2.15-2.35-3.77-4.99-4.84-7.92-1.08-2.93-1.61-5.92-1.61-8.95s.59-6.26,1.76-9.39c1.17-3.13,2.93-5.94,5.28-8.44,2.35-2.49,5.23-4.52,8.66-6.09,3.42-1.56,7.34-2.35,11.74-2.35s8.58,.86,12.54,2.57c3.96,1.71,7.21,4.13,9.76,7.26v-6.31c0-8.02-1.2-13.99-3.61-17.9-2.41-3.91-6.8-5.87-13.18-5.87-2.75,0-5.16,.34-7.22,1.03-2.06,.69-3.9,1.64-5.53,2.86-1.62,1.22-3.12,2.74-4.49,4.55-1.38,1.81-2.75,3.84-4.12,6.09l-7.53-7.63c1.37-1.47,2.81-2.93,4.33-4.4,1.52-1.47,3.38-2.79,5.58-3.96,2.2-1.17,4.82-2.13,7.86-2.86,3.03-.73,6.71-1.1,11.02-1.1Zm16.9,45.92c-.49-1.17-1.2-2.54-2.14-4.11-.93-1.56-2.14-3.08-3.61-4.55-1.47-1.47-3.24-2.71-5.3-3.74-2.06-1.03-4.52-1.54-7.37-1.54s-5.45,.56-7.81,1.69c-2.36,1.13-4.35,2.59-5.97,4.4-1.62,1.81-2.87,3.94-3.76,6.38-.89,2.45-1.32,4.99-1.32,7.63,0,3.13,.56,5.85,1.69,8.14,1.13,2.3,2.58,4.26,4.34,5.87,1.77,1.61,3.73,2.81,5.89,3.59,2.16,.78,4.22,1.17,6.19,1.17s3.76-.34,5.67-1.03c1.91-.68,3.73-1.64,5.45-2.86,1.72-1.22,3.26-2.66,4.64-4.33,1.38-1.66,2.5-3.47,3.39-5.43v-11.3Z"/><path class="cls-1" d="M303.25,122.56h-12.47v-11.88h-.59c-3.72,9.1-11.35,13.65-22.89,13.65-4.89,0-9.39-.91-13.5-2.71-4.11-1.81-7.66-4.4-10.64-7.78-2.99-3.38-5.31-7.43-6.97-12.18-1.66-4.74-2.49-10.05-2.49-15.92s.83-11,2.49-15.7c1.66-4.7,3.98-8.7,6.97-12.03,2.98-3.32,6.53-5.89,10.64-7.7,4.11-1.81,8.61-2.71,13.5-2.71,2.35,0,4.67,.25,6.97,.73,2.3,.49,4.48,1.27,6.53,2.35,2.05,1.08,3.89,2.47,5.5,4.18,1.61,1.71,2.91,3.84,3.89,6.38h.59V27.61h12.47V122.56Zm-12.47-42.11c0-4.01-.56-7.58-1.69-10.71-1.13-3.13-2.62-5.8-4.48-8-1.86-2.2-4.01-3.86-6.46-4.99-2.45-1.12-5.04-1.69-7.78-1.69-3.03,0-5.92,.56-8.66,1.69-2.74,1.13-5.16,2.93-7.26,5.43-2.1,2.49-3.77,5.7-4.99,9.61-1.22,3.91-1.83,8.66-1.83,14.23s.61,10.17,1.83,14.09c1.22,3.91,2.86,7.09,4.92,9.54,2.05,2.45,4.45,4.23,7.19,5.36,2.74,1.13,5.67,1.69,8.8,1.69,2.84,0,5.5-.61,8-1.83,2.49-1.22,4.64-2.88,6.46-4.99,1.81-2.1,3.25-4.6,4.33-7.48,1.07-2.88,1.61-5.94,1.61-9.17v-12.77Z"/><path class="cls-1" d="M388.06,86.02c0,5.09-.88,9.95-2.64,14.6-1.76,4.65-4.28,8.73-7.56,12.25-3.28,3.52-7.24,6.31-11.88,8.36-4.65,2.05-9.86,3.08-15.63,3.08s-11.18-1.05-15.92-3.15c-4.75-2.1-8.76-4.92-12.03-8.44-3.28-3.52-5.82-7.6-7.63-12.25-1.81-4.65-2.71-9.46-2.71-14.45s.9-9.95,2.71-14.6c1.81-4.64,4.35-8.73,7.63-12.25,3.28-3.52,7.29-6.33,12.03-8.44,4.74-2.1,10.05-3.15,15.92-3.15s10.98,1.05,15.63,3.15c4.64,2.1,8.61,4.92,11.88,8.44,3.28,3.52,5.8,7.61,7.56,12.25,1.76,4.65,2.64,9.51,2.64,14.6Zm-13.94,0c0-6.85-.73-12.4-2.2-16.65-1.47-4.26-3.37-7.56-5.72-9.9-2.35-2.35-4.94-3.94-7.78-4.77-2.84-.83-5.58-1.25-8.22-1.25s-5.38,.42-8.22,1.25c-2.84,.83-5.45,2.42-7.85,4.77-2.4,2.35-4.35,5.65-5.87,9.9-1.52,4.25-2.27,9.81-2.27,16.65s.76,12.25,2.27,16.51c1.52,4.25,3.47,7.56,5.87,9.9,2.4,2.35,5.01,3.94,7.85,4.77,2.84,.83,5.58,1.25,8.22,1.25s5.38-.42,8.22-1.25c2.84-.83,5.43-2.42,7.78-4.77,2.35-2.35,4.26-5.65,5.72-9.9,1.47-4.26,2.2-9.76,2.2-16.51Z"/><path class="cls-1" d="M396.86,49.19h12.47v11.88h.59c3.62-9,11.25-13.5,22.89-13.5,4.89,0,9.39,.91,13.5,2.71,4.11,1.81,7.65,4.4,10.64,7.78,2.98,3.37,5.31,7.41,6.97,12.11,1.66,4.7,2.49,9.98,2.49,15.85s-.83,11.03-2.49,15.77c-1.66,4.75-3.99,8.78-6.97,12.1-2.98,3.33-6.53,5.89-10.64,7.7-4.11,1.81-8.61,2.71-13.5,2.71-2.35,0-4.67-.25-6.97-.73-2.3-.49-4.48-1.27-6.53-2.35-2.05-1.08-3.89-2.49-5.5-4.26-1.61-1.76-2.91-3.91-3.89-6.46h-.59v43.34h-12.47V49.19Zm12.47,42.11c0,4.01,.56,7.58,1.69,10.71,1.12,3.13,2.62,5.8,4.47,8,1.86,2.2,4.01,3.87,6.46,4.99,2.44,1.13,5.04,1.69,7.78,1.69,3.03,0,5.92-.56,8.66-1.69,2.74-1.12,5.16-2.93,7.26-5.43,2.1-2.49,3.76-5.7,4.99-9.61,1.22-3.91,1.83-8.66,1.83-14.23s-.61-10.17-1.83-14.09c-1.22-3.91-2.86-7.09-4.92-9.54-2.05-2.44-4.48-4.23-7.26-5.36-2.79-1.12-5.7-1.69-8.73-1.69-2.84,0-5.5,.61-8,1.83-2.49,1.22-4.67,2.89-6.53,4.99-1.86,2.1-3.3,4.6-4.33,7.48-1.03,2.89-1.54,5.94-1.54,9.17v12.77Z"/><path class="cls-1" d="M467.88,55.06v-5.87h12.76V26.6h12.47v22.6h17.75v5.87h-17.75v48.71c0,1.17,.05,2.52,.15,4.03,.1,1.52,.39,2.93,.88,4.26,.49,1.32,1.25,2.42,2.27,3.3,1.03,.88,2.47,1.32,4.33,1.32,2.35,0,4.3-.88,5.87-2.64,1.56-1.76,2.84-3.67,3.81-5.72l6.9,7.04c-4.79,4.79-10.22,7.19-16.29,7.19-2.54,0-5.04-.44-7.48-1.32-2.45-.88-4.62-2.22-6.53-4.03-1.91-1.81-3.45-4.13-4.62-6.97-1.17-2.84-1.76-6.16-1.76-9.98V55.06h-12.76Z"/></g></g></g></svg>